:SAMPLES-PER-SECOND 30
:FULLY-SPECIFIED
:DEGREES
245
root  -3.59559 38.5516 -62.457 31.2811 79.072 33.8188
RightUpLeg  -23.7481 -21.6307 2.75741
RightLeg  41.3633 1.57316 -14.8136
RightFoot  -13.0493 0.0523992 -7.71595
RightToes  -5.82073e-011 -3.18055e-015 -2.98177e-016
Spine  4.15282 -0.0714441 -11.2526
Spine1  9.37747 -1.74733 4.60869
HEad  -4.0157 -24.9048 3.86227
LeftShoulder1  -3.88251e-019 9.70628e-020 -3.87848e-018
LeftArm  -11.9466 54.0642 -52.8429
LeftForeArm  9.41694 -15.2333 -2.81096
LeftHand  0.165907 -4.5434 -1.80972
RightShoulder  7.38859 10.2688 35.4072
RightArm  31.4392 -51.3074 11.0603
RightForeArm  1.22529 44.9397 -27.1789
RightHand  -2.49201 7.82604 -21.5734
LeftUpLeg  -0.475769 6.68737 -2.85987
LeftLeg  17.717 7.22764 5.39237
LeftFoot  -10.0521 0.158514 -7.02276
LeftToes  1.2018e-011 -3.94675e-011 -1.33631e-011
246
root  -3.03295 38.4792 -62.8724 20.3357 73.6538 22.4129
RightUpLeg  -26.0803 -24.1018 6.68038
RightLeg  36.101 0.612358 -13.1545
RightFoot  -13.9224 -0.0027947 -7.17866
RightToes  -5.82073e-011 -3.18055e-015 -2.98177e-016
Spine  4.66758 -0.497665 -11.656
Spine1  8.87207 -2.43076 5.9952
HEad  -6.57158 -21.4102 4.60233
LeftShoulder1  -3.88251e-019 9.70628e-020 -3.87848e-018
LeftArm  -11.3974 51.552 -51.2224
LeftForeArm  11.7023 -14.3745 -2.60387
LeftHand  -0.0203238 -4.73262 0.488665
RightShoulder  7.40337 10.2772 35.464
RightArm  31.9632 -50.5331 11.7155
RightForeArm  -5.95194 45.0351 -26.8482
RightHand  -2.19301 5.63888 -22.6831
LeftUpLeg  0.833137 9.92669 -3.56286
LeftLeg  17.954 9.95439 5.95434
LeftFoot  -11.7295 0.0576734 -7.48483
LeftToes  1.2018e-011 -3.94675e-011 -1.33631e-011
247
root  -2.43028 38.457 -63.257 14.4048 68.3469 15.7504
RightUpLeg  -27.316 -26.5854 11.0754
RightLeg  29.2858 -0.608804 -11.1063
RightFoot  -12.9927 0.0536294 -6.63285
RightToes  -5.82073e-011 -3.18055e-015 -2.98177e-016
Spine  5.67056 -1.08239 -10.4883
Spine1  7.48394 -2.97093 6.30845
HEad  -8.36537 -18.6301 4.6739
LeftShoulder1  -3.88251e-019 9.70628e-020 -3.87848e-018
LeftArm  -12.4173 50.4139 -50.5002
LeftForeArm  11.3498 -13.5193 -2.17409
LeftHand  -0.105732 -4.48318 1.52842
RightShoulder  7.35255 10.2498 35.2649
RightArm  32.4205 -50.8609 11.9899
RightForeArm  -10.361 45.2476 -26.7779
RightHand  -1.91707 3.84604 -23.5815
LeftUpLeg  1.60394 14.1882 -4.16239
LeftLeg  18.0958 11.5411 7.16783
LeftFoot  -12.4783 0.00906322 -7.85425
LeftToes  1.2018e-011 -3.94675e-011 -1.33631e-011
248
root  -1.7574 38.4012 -63.5719 10.806 63.3231 11.8871
RightUpLeg  -26.4759 -27.8508 14.0507
RightLeg  22.443 -1.57695 -8.96147
RightFoot  -10.6861 0.233331 -8.80377
RightToes  -5.82073e-011 -3.18055e-015 -2.98177e-016
Spine  7.10227 -1.48991 -8.50517
Spine1  6.1023 -3.15568 5.64271
HEad  -9.90205 -17.3075 4.48592
LeftShoulder1  -3.88251e-019 9.70628e-020 -3.87848e-018
LeftArm  -14.2028 49.9391 -51.2489
LeftForeArm  9.81426 -13.8079 -1.60016
LeftHand  -0.0304335 -3.85597 0.591737
RightShoulder  7.27496 10.2273 34.9166
RightArm  33.2649 -51.8507 11.2926
RightForeArm  -14.7696 45.9558 -27.1804
RightHand  -1.77479 3.09783 -23.7277
LeftUpLeg  2.54409 19.6697 -4.58396
LeftLeg  18.6723 11.3261 8.93113
LeftFoot  -12.958 -0.0264975 -8.34103
LeftToes  1.2018e-011 -3.94675e-011 -1.33631e-011
249
root  -1.00275 38.3186 -63.7466 8.21283 58.8167 9.63184
RightUpLeg  -24.0138 -26.0236 14.3774
RightLeg  18.3325 -2.31089 -7.6948
RightFoot  -8.43999 0.543999 -12.4935
RightToes  -5.82073e-011 -3.18055e-015 -2.98177e-016
Spine  8.24911 -1.76518 -6.39957
Spine1  5.85381 -3.15947 4.54791
HEad  -11.4565 -16.8965 4.74958
LeftShoulder1  -3.88251e-019 9.70628e-020 -3.87848e-018
LeftArm  -16.1967 49.4692 -53.5599
LeftForeArm  8.45254 -15.5116 -0.969037
LeftHand  0.0522788 -2.82206 -0.583584
RightShoulder  7.31393 10.2833 34.9913
RightArm  34.3095 -52.1277 10.1217
RightForeArm  -19.5407 46.9621 -27.873
RightHand  -1.75256 3.30264 -22.927
LeftUpLeg  3.84961 24.4358 -4.41372
LeftLeg  20.0871 10.1109 10.5111
LeftFoot  -13.5683 -0.0834306 -10.7321
LeftToes  1.2018e-011 -3.94675e-011 -1.33631e-011
250
root  -0.215768 38.2471 -63.7745 6.14484 55.2419 7.63057
RightUpLeg  -22.1588 -22.0739 13.6217
RightLeg  18.185 -2.91851 -7.75011
RightFoot  -7.65863 0.727267 -14.5247
RightToes  -5.82073e-011 -3.18055e-015 -2.98177e-016
Spine  8.8453 -2.14327 -4.46107
Spine1  6.0762 -3.35087 3.99847
HEad  -12.7083 -16.4951 5.42409
LeftShoulder1  -3.88251e-019 9.70628e-020 -3.87848e-018
LeftArm  -17.422 49.1216 -57.2391
LeftForeArm  5.779 -18.3896 -0.222321
LeftHand  -0.00582146 -1.82166 0.239995
RightShoulder  7.42727 10.3664 35.3862
RightArm  34.7032 -51.3851 9.63477
RightForeArm  -20.8395 47.7031 -28.5557
RightHand  -1.9033 4.12013 -22.7672
LeftUpLeg  3.54055 26.0045 -3.80424
LeftLeg  24.4346 10.108 12.6192
LeftFoot  -12.8208 0.0133087 -15.0732
LeftToes  1.2018e-011 -3.94675e-011 -1.33631e-011
251
root  0.520684 38.1595 -63.7397 4.58377 52.717 5.26877
RightUpLeg  -22.2671 -20.7734 14.2388
RightLeg  20.1219 -1.22976 -7.97279
RightFoot  -8.50659 0.624395 -14.5038
RightToes  -5.82073e-011 -3.18055e-015 -2.98177e-016
Spine  9.39893 -2.60346 -2.95009
Spine1  5.4507 -3.84815 4.77202
HEad  -13.3719 -15.9378 5.94523
LeftShoulder1  -3.88251e-019 9.70628e-020 -3.87848e-018
LeftArm  -15.874 48.9739 -61.9412
LeftForeArm  -1.13689 -22.2689 1.24719
LeftHand  -0.187686 -1.81877 3.26158
RightShoulder  7.4202 10.3598 35.3644
RightArm  33.893 -50.3374 10.393
RightForeArm  -16.9235 48.3254 -29.4999
RightHand  -2.26813 5.3065 -24.1198
LeftUpLeg  -0.161454 26.6161 -3.17295
LeftLeg  32.6814 9.65971 16.8731
LeftFoot  -9.21975 0.574458 -17.8299
LeftToes  1.2018e-011 -3.94675e-011 -1.33631e-011
252
root  1.1399 38.0492 -63.7457 3.13086 50.7074 2.59796
RightUpLeg  -22.993 -21.9549 15.7901
RightLeg  21.7693 1.69166 -7.25306
RightFoot  -9.67743 0.467941 -14.1732
RightToes  -5.82073e-011 -3.18055e-015 -2.98177e-016
Spine  10.595 -2.87896 -1.73411
Spine1  4.09492 -4.35548 6.64097
HEad  -13.7759 -15.5559 6.32504
LeftShoulder1  -3.88251e-019 9.70628e-020 -3.87848e-018
LeftArm  -11.3855 48.27 -66.6038
LeftForeArm  -10.2677 -26.7457 3.9697
LeftHand  -0.380701 -3.03873 5.7396
RightShoulder  7.28929 10.2635 34.9095
RightArm  31.6622 -48.9929 12.3793
RightForeArm  -11.658 49.5952 -31.3188
RightHand  -2.57172 6.14766 -25.3525
LeftUpLeg  -6.11779 26.4758 -2.56123
LeftLeg  42.3735 7.87556 21.7358
LeftFoot  -4.60826 1.17493 -16.0344
LeftToes  1.2018e-011 -3.94675e-011 -1.33631e-011
